<?xml version="1.0" standalone="no"?>
<!DOCTYPE svg PUBLIC "-//W3C//DTD SVG 20010904//EN"
 "http://www.w3.org/TR/2001/REC-SVG-20010904/DTD/svg10.dtd">
<svg version="1.0" xmlns="http://www.w3.org/2000/svg"
 width="700.000000pt" height="700.000000pt" viewBox="0 0 700.000000 700.000000"
 preserveAspectRatio="xMidYMid meet">
<metadata>
Created by potrace 1.11, written by Peter Selinger 2001-2013
</metadata>
<g transform="translate(0.000000,700.000000) scale(0.100000,-0.100000)"
fill="#000000" stroke="none">
<path d="M5154 4333 c-26 -54 -79 -165 -119 -248 -152 -317 -191 -396 -283
-585 -52 -107 -116 -240 -142 -295 -39 -81 -226 -465 -237 -486 -2 -3 13 -13
33 -22 26 -13 34 -22 30 -35 -5 -14 -3 -13 9 2 13 17 18 16 17 -4 0 -3 11 -6
24 -6 28 -2 56 -22 48 -35 -3 -5 -3 -9 0 -9 3 0 13 16 22 35 9 19 20 33 24 30
5 -3 7 3 5 12 -3 24 23 75 35 68 6 -3 7 0 4 8 -3 8 9 42 25 76 17 33 31 64 32
68 0 5 8 16 16 26 9 9 13 17 9 17 -3 0 0 14 9 30 9 17 20 30 26 30 6 0 8 4 4
9 -6 11 14 60 32 79 7 7 13 17 13 22 0 24 62 140 72 134 7 -4 8 -2 4 5 -4 6 7
42 25 79 18 37 33 71 33 75 1 4 7 11 14 16 8 5 13 10 11 12 -4 8 25 79 33 79
4 0 7 4 5 9 -1 5 7 17 18 26 11 9 14 13 6 9 -11 -5 -13 -3 -8 10 4 10 7 20 7
22 0 3 5 2 11 -2 7 -4 10 -1 7 7 -3 8 9 41 25 74 17 33 32 62 32 65 4 17 50
106 57 108 5 2 6 7 3 12 -3 5 2 15 10 24 9 8 16 19 15 23 0 20 12 43 21 38 5
-3 6 1 3 9 -3 9 -1 16 6 16 6 0 8 5 5 10 -3 6 0 10 8 10 22 0 28 -12 14 -29
-10 -14 -10 -14 5 -3 13 11 23 9 60 -13 23 -14 58 -33 76 -42 17 -9 32 -20 32
-25 0 -4 7 -8 15 -8 8 0 15 -4 15 -10 0 -5 7 -10 15 -10 8 0 24 -9 35 -20 11
-11 27 -20 35 -20 7 0 18 -7 23 -16 5 -9 11 -16 13 -15 19 3 49 -14 45 -25 -3
-7 0 -16 6 -20 7 -4 8 -3 4 4 -4 7 -1 12 8 12 9 0 16 -4 16 -10 0 -5 7 -10 15
-10 7 0 18 -8 24 -17 5 -10 13 -16 16 -14 11 6 115 -60 110 -70 -3 -4 3 -6 14
-4 11 2 25 -3 32 -11 10 -12 9 -13 -7 -8 -15 4 -16 4 -5 -4 8 -6 20 -8 28 -5
7 3 13 0 13 -6 0 -6 3 -10 8 -9 4 2 22 -6 39 -17 23 -14 29 -22 20 -28 -7 -5
-4 -6 9 -2 12 3 28 0 35 -7 8 -7 27 -20 43 -28 55 -28 66 -35 66 -40 -1 -9
-37 -31 -340 -215 -162 -97 -301 -183 -309 -191 -12 -11 -11 -15 3 -29 9 -9
14 -21 11 -26 -4 -5 -1 -9 5 -9 6 0 8 -5 5 -10 -4 -6 -1 -9 7 -8 7 2 12 -5 12
-14 -1 -10 2 -16 6 -13 5 3 21 -14 35 -37 15 -24 24 -35 21 -25 -5 15 0 19 20
16 4 0 10 3 13 8 13 19 78 63 84 56 4 -3 7 -2 7 4 0 9 53 38 57 31 2 -1 10 7
19 20 9 13 21 21 27 19 7 -2 19 3 27 12 18 19 67 50 93 58 9 3 17 9 17 14 0 5
5 9 11 9 6 0 30 14 54 31 26 19 48 28 56 24 7 -5 10 -4 5 3 -6 11 31 38 47 34
4 -1 7 2 7 6 0 13 59 43 72 36 6 -4 8 -3 5 3 -7 12 10 29 32 35 8 2 23 10 33
18 10 8 21 14 25 12 3 -2 13 8 22 22 22 33 21 196 -1 209 -7 4 -78 48 -157 97
-78 50 -145 90 -147 90 -2 0 -35 20 -72 44 -37 24 -189 119 -338 211 l-271
168 35 71 c60 123 62 111 -25 151 -42 19 -82 35 -89 35 -7 0 -34 -44 -60 -97z"/>
<path d="M2201 4210 c-130 -36 -232 -140 -287 -291 -15 -44 -19 -57 -30 -114
-3 -16 -7 -37 -9 -45 -2 -8 -4 -28 -4 -43 -1 -20 -5 -26 -13 -21 -10 6 -10 5
-1 -8 7 -8 10 -17 7 -20 -7 -8 -8 -221 0 -308 4 -41 16 -110 27 -154 10 -43
16 -83 12 -89 -3 -5 -1 -7 5 -3 9 6 20 -11 23 -39 1 -5 10 -22 20 -37 10 -14
19 -31 19 -37 0 -6 5 -11 11 -11 5 0 8 -4 5 -9 -3 -5 1 -11 9 -15 8 -3 15 -12
15 -21 0 -8 5 -15 10 -15 6 0 22 -11 36 -25 38 -38 122 -76 181 -82 32 -4 50
-10 46 -16 -4 -6 -1 -7 7 -2 8 5 37 9 64 10 28 1 58 5 66 8 40 14 49 15 54 4
3 -9 5 -9 5 0 1 7 15 20 32 28 25 13 34 14 47 4 14 -11 15 -11 6 0 -9 10 2 26
47 73 32 33 61 68 64 79 4 10 11 19 16 19 5 0 8 3 8 8 -3 20 2 32 13 26 6 -4
8 -3 5 3 -4 6 2 37 12 69 26 78 35 115 34 137 0 9 2 17 6 17 6 0 8 33 12 167
1 51 5 71 13 66 8 -5 8 -3 -1 8 -6 8 -11 30 -11 49 -1 214 -69 425 -171 528
-49 49 -129 96 -186 107 -64 13 -165 11 -224 -5z m157 -170 c8 -8 11 -9 7 -2
-4 7 0 12 10 12 9 0 14 -3 12 -7 -3 -5 6 -9 20 -10 59 -3 85 -74 44 -120 -9
-10 -17 -25 -19 -33 -4 -16 -33 -78 -210 -438 l-120 -243 -7 48 c-14 94 -22
310 -11 320 3 3 1 14 -5 24 -5 11 -6 19 -2 19 4 0 8 21 7 47 0 42 9 116 21
163 2 8 4 21 4 28 1 7 6 10 13 6 7 -4 8 -3 4 5 -10 16 13 83 26 75 7 -4 8 -2
4 4 -10 16 35 74 52 67 7 -2 11 -1 9 3 -5 7 17 32 28 32 2 1 10 2 17 5 48 15
80 14 96 -5z m194 -280 c3 -17 0 -30 -6 -30 -8 0 -8 -3 0 -8 6 -4 10 -46 10
-99 -1 -51 2 -93 6 -93 3 0 4 -8 2 -17 -2 -10 -5 -54 -8 -98 -14 -245 -60
-367 -153 -412 -57 -27 -143 -22 -193 11 -22 14 -40 31 -40 37 0 15 32 71 50
87 8 8 10 11 4 8 -6 -3 -2 14 9 39 11 24 25 41 30 38 6 -3 7 -1 4 4 -9 14 17
65 28 55 5 -4 5 -2 1 5 -10 18 25 86 37 71 6 -9 7 -8 3 5 -6 19 13 69 24 62 4
-3 7 5 6 18 -1 13 4 21 12 19 8 -1 11 2 8 7 -9 14 15 61 27 54 6 -3 7 -1 4 5
-4 5 -4 17 -1 26 5 14 9 14 23 4 14 -12 14 -11 2 4 -12 16 -8 28 25 98 22 45
46 80 54 81 10 0 11 2 3 5 -9 4 -9 11 -1 29 14 30 24 25 30 -15z"/>
<path d="M3365 4125 c-66 -41 -159 -98 -207 -127 -48 -29 -88 -56 -88 -59 0
-3 11 -23 25 -43 13 -20 22 -36 20 -36 -3 0 2 -8 10 -17 8 -10 21 -26 28 -37
13 -18 15 -18 40 -1 15 9 27 14 27 9 0 -5 7 1 15 13 8 11 26 24 40 27 14 4 25
11 25 16 0 5 7 6 17 3 10 -4 14 -2 10 4 -4 6 6 16 23 23 16 7 34 18 40 25 6 8
19 11 27 8 9 -4 14 -2 10 3 -3 6 3 15 13 22 18 11 19 6 20 -136 0 -81 0 -176
-1 -212 -1 -36 -1 -69 -1 -75 0 -5 1 -14 2 -20 1 -5 2 -120 1 -255 l-1 -245
-161 0 c-88 0 -163 -4 -166 -9 -6 -9 -4 -158 2 -164 2 -2 43 -4 92 -6 65 -1
87 -5 85 -15 -1 -7 2 -10 8 -6 6 3 7 11 4 17 -5 7 -1 9 9 5 9 -3 19 -2 22 3 3
6 15 6 29 0 13 -5 27 -6 30 -3 3 3 13 0 23 -8 9 -8 14 -9 10 -3 -5 9 33 11
141 10 114 -1 146 -5 144 -15 -1 -7 2 -10 8 -6 6 3 8 10 5 15 -3 5 42 8 102 8
l107 -2 -1 82 c0 46 -4 86 -7 90 -4 4 -58 8 -119 8 -62 1 -119 2 -128 3 -15 1
-16 52 -17 564 -1 309 -1 574 -1 588 l-1 27 -97 1 -98 0 -120 -74z"/>
<path d="M1200 3855 c-346 -214 -375 -232 -437 -268 -51 -30 -52 -32 -55 -81
-4 -72 2 -156 12 -156 14 0 110 -62 110 -71 0 -5 7 -9 15 -9 29 0 94 -51 88
-68 -4 -13 -3 -14 5 -4 7 11 17 9 48 -8 21 -12 46 -28 55 -36 8 -8 19 -14 23
-14 15 0 55 -37 48 -45 -4 -3 -2 -6 3 -5 22 5 42 -1 61 -17 10 -10 36 -27 57
-38 21 -11 41 -24 44 -29 4 -5 0 -6 -7 -1 -9 5 -11 4 -6 -4 4 -7 13 -10 19 -8
14 4 159 -82 153 -91 -2 -4 8 -8 24 -8 20 -1 27 2 23 12 -3 8 0 14 6 14 6 0
11 6 11 13 0 7 8 22 18 33 21 24 55 84 50 89 -1 2 -150 91 -330 200 -181 108
-328 201 -328 207 0 7 5 6 14 -1 11 -9 16 -9 22 0 4 8 3 9 -4 5 -7 -4 -12 -3
-12 2 0 4 19 19 43 32 23 13 61 36 85 52 23 16 42 26 42 23 0 -4 13 3 30 15
16 12 35 18 41 14 7 -4 10 -3 7 2 -3 5 0 15 8 22 8 7 14 10 14 6 0 -4 9 1 20
11 11 10 20 14 20 10 0 -5 7 0 15 11 8 10 15 15 15 9 0 -6 3 -6 8 1 14 22 125
85 139 80 8 -4 11 -1 8 5 -4 6 2 13 14 16 12 3 21 9 21 13 0 5 9 12 21 15 12
4 29 13 38 21 9 7 24 20 35 27 18 13 16 17 -30 90 -27 42 -51 77 -54 77 -3 0
-124 -74 -270 -165z"/>
<path d="M5293 3925 c0 -8 4 -12 9 -9 5 3 6 10 3 15 -9 13 -12 11 -12 -6z"/>
<path d="M5373 3875 c0 -8 4 -12 9 -9 5 3 6 10 3 15 -9 13 -12 11 -12 -6z"/>
<path d="M5550 3761 c0 -6 4 -13 10 -16 6 -3 7 1 4 9 -7 18 -14 21 -14 7z"/>
<path d="M1376 3718 c3 -5 10 -6 15 -3 13 9 11 12 -6 12 -8 0 -12 -4 -9 -9z"/>
<path d="M1310 3696 c0 -2 8 -10 18 -17 15 -13 16 -12 3 4 -13 16 -21 21 -21
13z"/>
<path d="M1109 3543 c-13 -16 -12 -17 4 -4 16 13 21 21 13 21 -2 0 -10 -8 -17
-17z"/>
<path d="M1040 3520 c-9 -6 -10 -10 -3 -10 6 0 15 5 18 10 8 12 4 12 -15 0z"/>
<path d="M6194 3282 c4 -3 14 -7 22 -8 9 -1 13 0 10 4 -4 3 -14 7 -22 8 -9 1
-13 0 -10 -4z"/>
<path d="M996 3162 c-3 -5 1 -9 9 -9 8 0 12 4 9 9 -3 4 -7 8 -9 8 -2 0 -6 -4
-9 -8z"/>
<path d="M1056 3118 c3 -5 10 -6 15 -3 13 9 11 12 -6 12 -8 0 -12 -4 -9 -9z"/>
<path d="M1113 3055 c0 -8 4 -12 9 -9 5 3 6 10 3 15 -9 13 -12 11 -12 -6z"/>
<path d="M4730 2986 c0 -2 7 -7 16 -10 8 -3 12 -2 9 4 -6 10 -25 14 -25 6z"/>
<path d="M1336 2942 c-3 -5 1 -9 9 -9 8 0 12 4 9 9 -3 4 -7 8 -9 8 -2 0 -6 -4
-9 -8z"/>
<path d="M5645 2940 c-3 -6 1 -7 9 -4 18 7 21 14 7 14 -6 0 -13 -4 -16 -10z"/>
<path d="M1359 2913 c-13 -16 -12 -17 4 -4 9 7 17 15 17 17 0 8 -8 3 -21 -13z"/>
<path d="M3370 2819 c0 -5 5 -7 10 -4 6 3 10 8 10 11 0 2 -4 4 -10 4 -5 0 -10
-5 -10 -11z"/>
<path d="M2176 2802 c-3 -5 1 -9 9 -9 8 0 12 4 9 9 -3 4 -7 8 -9 8 -2 0 -6 -4
-9 -8z"/>
<path d="M2234 2802 c4 -3 14 -7 22 -8 9 -1 13 0 10 4 -4 3 -14 7 -22 8 -9 1
-13 0 -10 -4z"/>
</g>
</svg>
